<svg xmlns="http://www.w3.org/2000/svg" viewBox="0 0 14.01 30"><defs><style>.cls-1{fill:#f1b434;}</style></defs><title>Facebook</title><g id="Layer_2" data-name="Layer 2"><g id="Layer_1-2" data-name="Layer 1"><path class="cls-1" d="M14,0c0,.1,0,.19,0,.29,0,1.54,0,3.08,0,4.62,0,.21-.06.27-.27.27-.84,0-1.68,0-2.51,0a5.17,5.17,0,0,0-.85.1,1.14,1.14,0,0,0-.94,1.12c0,1.08,0,2.17-.06,3.26,0,.2.13.16.24.16H14L13.47,15H9.37c0,.12,0,.22,0,.32q0,7.21,0,14.42c0,.09,0,.18,0,.26H3.75c0-.45,0-.89,0-1.34q0-6.64,0-13.27c0-.12,0-.24,0-.38H0c0-.1,0-.18,0-.26,0-1.55,0-3.1,0-4.65,0-.21.06-.27.27-.27H3.48c.23,0,.28-.07.28-.29,0-1.39,0-2.78,0-4.17a6.83,6.83,0,0,1,.72-2.91A3.93,3.93,0,0,1,6.9.45C7.49.27,8.11.19,8.72.06L9,0Z"/></g></g></svg>