<svg xmlns="http://www.w3.org/2000/svg" xmlns:xlink="http://www.w3.org/1999/xlink" viewBox="0 0 525.68 350.55"><defs><style>.cls-1,.cls-9{fill:none;}.cls-2{fill:#e5e5e5;}.cls-3,.cls-8{fill:#fff;}.cls-3{opacity:0.2;}.cls-4,.cls-5,.cls-6,.cls-7,.cls-9{stroke:#fff;stroke-miterlimit:10;stroke-width:3px;}.cls-4{fill:url(#New_Pattern_2);}.cls-5{fill:url(#New_Pattern_2-3);}.cls-6{fill:url(#New_Pattern_2-5);}.cls-7{fill:url(#New_Pattern_2-7);}</style><pattern id="New_Pattern_2" data-name="New Pattern 2" width="7" height="10" patternTransform="translate(8.89 -10.39) scale(1.66)" patternUnits="userSpaceOnUse" viewBox="0 0 7 10"><rect class="cls-1" width="7" height="10"/><circle class="cls-2" cx="7" cy="10" r="1"/><circle class="cls-2" cy="10" r="1"/><circle class="cls-2" cx="3.5" cy="5" r="1"/><circle class="cls-2" cx="7" r="1"/><circle class="cls-2" r="1"/></pattern><pattern id="New_Pattern_2-3" data-name="New Pattern 2" width="7" height="10" patternTransform="translate(8.89 -1.17) scale(1.66)" patternUnits="userSpaceOnUse" viewBox="0 0 7 10"><rect class="cls-1" width="7" height="10"/><circle class="cls-2" cx="7" cy="10" r="1"/><circle class="cls-2" cy="10" r="1"/><circle class="cls-2" cx="3.5" cy="5" r="1"/><circle class="cls-2" cx="7" r="1"/><circle class="cls-2" r="1"/></pattern><pattern id="New_Pattern_2-5" data-name="New Pattern 2" width="7" height="10" patternTransform="translate(18.12 -10.39) scale(1.66)" patternUnits="userSpaceOnUse" viewBox="0 0 7 10"><rect class="cls-1" width="7" height="10"/><circle class="cls-2" cx="7" cy="10" r="1"/><circle class="cls-2" cy="10" r="1"/><circle class="cls-2" cx="3.5" cy="5" r="1"/><circle class="cls-2" cx="7" r="1"/><circle class="cls-2" r="1"/></pattern><pattern id="New_Pattern_2-7" data-name="New Pattern 2" width="7" height="10" patternTransform="translate(18.12 -1.17) scale(1.66)" patternUnits="userSpaceOnUse" viewBox="0 0 7 10"><rect class="cls-1" width="7" height="10"/><circle class="cls-2" cx="7" cy="10" r="1"/><circle class="cls-2" cy="10" r="1"/><circle class="cls-2" cx="3.5" cy="5" r="1"/><circle class="cls-2" cx="7" r="1"/><circle class="cls-2" r="1"/></pattern></defs><title>Paso1</title><g id="Layer_2" data-name="Layer 2"><g id="Layer_1-2" data-name="Layer 1"><path class="cls-3" d="M157.4,3.31,310.65,74.87v62h-23V249.91h23v97.65H155.4"/><rect class="cls-4" x="56.88" y="105.21" width="84.9" height="84.9"/><rect class="cls-5" x="56.88" y="217.79" width="84.9" height="84.9"/><rect class="cls-6" x="170.72" y="105.21" width="84.9" height="84.9"/><rect class="cls-7" x="170.72" y="217.79" width="84.9" height="84.9"/><polygon class="cls-8" points="507.31 173.61 500.95 179.97 509.21 188.23 462.52 188.23 462.52 197.23 507.71 197.23 500.95 203.99 507.31 210.35 525.68 191.98 507.31 173.61"/><path class="cls-8" d="M450.1,136.85H312.5V73L156.88.3l-.63-.3L0,73v277.6H312.5V249.91H450.1ZM309.5,347.55H3V74.87L156.25,3.31,309.5,74.87v62h-23V249.91h23ZM447.1,246.91H289.45V139.85H447.1Z"/><line class="cls-9" x1="289.21" y1="178.82" x2="377.51" y2="178.82"/><line class="cls-9" x1="289.21" y1="191.98" x2="377.51" y2="191.98"/><line class="cls-9" x1="289.21" y1="205.14" x2="377.51" y2="205.14"/></g></g></svg>