<svg xmlns="http://www.w3.org/2000/svg" viewBox="0 0 32.19 26.25"><defs><style>.cls-1{fill:#f1b434;}</style></defs><title>Twitter</title><g id="Layer_2" data-name="Layer 2"><g id="Layer_1-2" data-name="Layer 1"><path class="cls-1" d="M0,23.3a13.19,13.19,0,0,0,9.59-2.74,6.9,6.9,0,0,1-3.75-1.35A6.57,6.57,0,0,1,3.56,16c.48,0,1,0,1.43,0a9.52,9.52,0,0,0,1.39-.19A6.81,6.81,0,0,1,2,12.53a6.09,6.09,0,0,1-.81-3.24c.46.17.91.38,1.39.51a10.25,10.25,0,0,0,1.46.25C1.16,7.6.53,4.68,2.11,1.19a19,19,0,0,0,13.68,7c0-.42-.1-.8-.12-1.18a6.37,6.37,0,0,1,2.11-5.2A6.44,6.44,0,0,1,23.62.14,6.14,6.14,0,0,1,26.91,1.9a.42.42,0,0,0,.45.13A13.14,13.14,0,0,0,30.9.7l.4-.2a6.86,6.86,0,0,1-2.73,3.57,11.88,11.88,0,0,0,3.61-1,12.62,12.62,0,0,1-2,2.38c-.32.29-.66.57-1,.84a.54.54,0,0,0-.23.5,17.9,17.9,0,0,1-.68,5.59,19.79,19.79,0,0,1-1.87,4.46A19.12,19.12,0,0,1,23.19,21a17.57,17.57,0,0,1-5.84,3.85,18.88,18.88,0,0,1-6.48,1.35,19.06,19.06,0,0,1-4.67-.38A17.62,17.62,0,0,1,1.74,24.3L0,23.37Z"/></g></g></svg>